<svg xmlns="http://www.w3.org/2000/svg" width="2048" height="2048" viewBox="0 0 2048 2048" version="1.1"><path d="M 664.888 421.957 C 660.152 422.957, 652.424 425.580, 647.715 427.786 C 643.006 429.993, 636.981 433.282, 634.327 435.096 C 631.672 436.910, 626.860 440.893, 623.633 443.947 C 620.406 447.001, 615.846 452.200, 613.501 455.500 C 611.155 458.800, 607.837 464.292, 606.127 467.703 C 604.417 471.115, 601.855 477.865, 600.434 482.703 C 598.859 488.062, 597.635 495.213, 597.301 501 C 596.994 506.314, 597.264 513.777, 597.914 517.937 C 598.553 522.028, 600.209 528.778, 601.594 532.937 C 602.978 537.097, 605.999 543.875, 608.306 548 C 611.117 553.028, 615.631 558.665, 622 565.103 C 627.902 571.070, 634.171 576.276, 638.554 578.851 C 642.433 581.130, 648.500 584.128, 652.036 585.514 C 655.571 586.899, 661.847 588.711, 665.982 589.539 C 672.631 590.871, 734.127 591.013, 1198 590.772 C 1722.500 590.500, 1722.500 590.500, 1729.815 588.228 C 1733.838 586.979, 1740.638 584.193, 1744.925 582.038 C 1749.212 579.882, 1756.101 575.432, 1760.234 572.147 C 1764.366 568.863, 1770.312 562.899, 1773.446 558.893 C 1776.581 554.888, 1781.109 547.535, 1783.510 542.555 C 1785.911 537.575, 1788.610 530.800, 1789.508 527.500 C 1790.405 524.200, 1791.391 516.070, 1791.698 509.434 C 1792.123 500.231, 1791.851 495.368, 1790.550 488.934 C 1789.611 484.295, 1787.459 477.171, 1785.767 473.102 C 1784.075 469.034, 1780.546 462.509, 1777.925 458.602 C 1775.305 454.696, 1770.312 448.660, 1766.830 445.190 C 1763.349 441.719, 1757.575 436.960, 1754 434.613 C 1750.425 432.266, 1743.675 428.723, 1739 426.740 C 1734.325 424.757, 1726.738 422.430, 1722.140 421.567 C 1714.613 420.156, 1661.901 420.007, 1193.640 420.070 C 694.967 420.138, 673.145 420.216, 664.888 421.957 M 675 765.608 C 673.075 765.846, 668.254 766.733, 664.286 767.580 C 660.318 768.427, 654.299 770.207, 650.910 771.535 C 647.521 772.864, 641.401 776.036, 637.311 778.585 C 633.221 781.135, 626.845 786.208, 623.143 789.860 C 619.441 793.512, 614.468 799.363, 612.092 802.863 C 609.716 806.362, 606.477 812.083, 604.894 815.574 C 603.310 819.066, 601.008 825.428, 599.778 829.711 C 597.917 836.192, 597.553 839.851, 597.610 851.500 C 597.671 863.738, 598.022 866.633, 600.399 874.500 C 601.894 879.450, 604.915 886.841, 607.112 890.924 C 609.308 895.008, 613.434 901.275, 616.279 904.851 C 619.125 908.428, 624.976 914.139, 629.281 917.543 C 633.585 920.947, 640.361 925.319, 644.337 927.259 C 648.313 929.199, 654.672 931.745, 658.467 932.917 C 662.263 934.089, 669.673 935.506, 674.934 936.065 C 681.153 936.725, 747.486 936.979, 864.500 936.790 C 1044.500 936.500, 1044.500 936.500, 1053.297 933.741 C 1058.135 932.223, 1064.885 929.583, 1068.297 927.873 C 1071.708 926.163, 1077.200 922.845, 1080.500 920.499 C 1083.800 918.154, 1088.999 913.594, 1092.053 910.367 C 1095.107 907.140, 1099.090 902.328, 1100.904 899.673 C 1102.718 897.019, 1106.002 891.005, 1108.202 886.310 C 1110.464 881.483, 1113.022 873.803, 1114.088 868.636 C 1115.125 863.611, 1115.980 856.062, 1115.987 851.860 C 1115.994 847.659, 1115.295 840.459, 1114.433 835.860 C 1113.570 831.262, 1111.243 823.675, 1109.260 819 C 1107.277 814.325, 1103.734 807.575, 1101.387 804 C 1099.040 800.425, 1094.281 794.651, 1090.810 791.170 C 1087.340 787.688, 1081.304 782.695, 1077.398 780.075 C 1073.491 777.454, 1066.966 773.928, 1062.898 772.239 C 1058.829 770.551, 1052.125 768.432, 1048 767.531 C 1041.242 766.056, 1022.589 765.858, 859.500 765.535 C 759.950 765.338, 676.925 765.371, 675 765.608 M 1455.500 765.991 C 1363.311 766.497, 1349.890 766.762, 1345.500 768.159 C 1342.750 769.034, 1338.100 770.678, 1335.166 771.811 C 1332.233 772.944, 1326.608 775.766, 1322.666 778.082 C 1318.165 780.728, 1311.967 785.864, 1306 791.897 C 1299.631 798.335, 1295.117 803.972, 1292.306 809 C 1289.999 813.125, 1286.978 819.903, 1285.594 824.063 C 1284.209 828.222, 1282.553 834.972, 1281.914 839.063 C 1281.264 843.223, 1280.994 850.686, 1281.301 856 C 1281.635 861.787, 1282.859 868.938, 1284.434 874.297 C 1285.855 879.135, 1288.424 885.885, 1290.142 889.297 C 1291.860 892.708, 1294.645 897.525, 1296.330 900 C 1298.016 902.475, 1301.893 907.140, 1304.947 910.367 C 1308.001 913.594, 1313.270 918.216, 1316.656 920.638 C 1320.043 923.060, 1326.731 926.878, 1331.520 929.122 C 1336.504 931.458, 1344.133 934.009, 1349.364 935.088 C 1358.110 936.893, 1365.950 936.974, 1533 936.984 C 1653.679 936.991, 1710.276 936.656, 1716.500 935.896 C 1721.450 935.292, 1728.875 933.727, 1733 932.418 C 1737.125 931.109, 1744.271 927.900, 1748.880 925.286 C 1753.489 922.673, 1760.373 917.652, 1764.178 914.129 C 1767.983 910.606, 1773.090 904.930, 1775.527 901.515 C 1777.963 898.100, 1781.491 892.200, 1783.365 888.403 C 1785.239 884.606, 1787.827 878.125, 1789.116 874 C 1791.170 867.426, 1791.456 864.525, 1791.434 850.500 C 1791.411 835.721, 1791.196 833.851, 1788.617 826 C 1787.082 821.325, 1784.254 814.607, 1782.333 811.070 C 1780.412 807.534, 1776.880 802.092, 1774.483 798.978 C 1772.087 795.864, 1767.665 791.067, 1764.658 788.318 C 1761.650 785.569, 1756.651 781.636, 1753.550 779.577 C 1750.449 777.519, 1744.996 774.512, 1741.432 772.896 C 1737.868 771.280, 1731.250 768.979, 1726.726 767.783 C 1718.627 765.641, 1717.278 765.606, 1639.500 765.511 C 1596.050 765.458, 1513.250 765.674, 1455.500 765.991 M 675 1111.680 C 673.075 1111.878, 668.254 1112.733, 664.286 1113.580 C 660.318 1114.427, 654.299 1116.207, 650.910 1117.535 C 647.521 1118.864, 641.401 1122.036, 637.311 1124.585 C 633.221 1127.135, 626.845 1132.208, 623.143 1135.860 C 619.441 1139.512, 614.468 1145.363, 612.092 1148.863 C 609.716 1152.362, 606.477 1158.083, 604.894 1161.574 C 603.310 1165.066, 601.008 1171.428, 599.778 1175.711 C 597.917 1182.192, 597.553 1185.851, 597.610 1197.500 C 597.671 1209.738, 598.022 1212.633, 600.399 1220.500 C 601.894 1225.450, 604.915 1232.841, 607.112 1236.924 C 609.308 1241.008, 613.434 1247.275, 616.279 1250.851 C 619.125 1254.428, 624.976 1260.139, 629.281 1263.543 C 633.585 1266.947, 640.361 1271.319, 644.337 1273.259 C 648.313 1275.199, 654.639 1277.735, 658.395 1278.895 C 662.150 1280.055, 669.110 1281.449, 673.862 1281.994 C 679.187 1282.604, 734.080 1282.947, 817 1282.889 C 890.975 1282.837, 972.425 1282.466, 998 1282.065 C 1044.500 1281.334, 1044.500 1281.334, 1053.297 1278.658 C 1058.135 1277.186, 1064.885 1274.583, 1068.297 1272.873 C 1071.708 1271.163, 1077.200 1267.845, 1080.500 1265.499 C 1083.800 1263.154, 1088.999 1258.594, 1092.053 1255.367 C 1095.107 1252.140, 1099.090 1247.328, 1100.904 1244.673 C 1102.718 1242.019, 1106.002 1236.005, 1108.202 1231.310 C 1110.464 1226.483, 1113.022 1218.803, 1114.088 1213.636 C 1115.125 1208.611, 1115.980 1201.062, 1115.987 1196.860 C 1115.994 1192.659, 1115.295 1185.459, 1114.433 1180.860 C 1113.570 1176.262, 1111.243 1168.675, 1109.260 1164 C 1107.277 1159.325, 1103.734 1152.575, 1101.387 1149 C 1099.040 1145.425, 1094.281 1139.651, 1090.810 1136.170 C 1087.340 1132.688, 1081.304 1127.695, 1077.398 1125.075 C 1073.491 1122.454, 1066.966 1118.928, 1062.898 1117.239 C 1058.829 1115.550, 1052.031 1113.455, 1047.792 1112.584 C 1040.908 1111.169, 1020.763 1111.017, 859.292 1111.160 C 759.856 1111.248, 676.925 1111.482, 675 1111.680" stroke="none" fill="#143474" fill-rule="evenodd"/><path d="M 327.164 421.057 C 324.229 421.580, 318.379 423.156, 314.164 424.560 C 309.949 425.963, 303.125 428.999, 299 431.306 C 293.972 434.117, 288.335 438.631, 281.897 445 C 275.930 450.902, 270.724 457.171, 268.149 461.554 C 265.870 465.433, 262.872 471.500, 261.486 475.036 C 260.101 478.571, 258.242 485.042, 257.356 489.416 C 256.161 495.310, 255.884 500.491, 256.285 509.434 C 256.636 517.275, 257.564 524.061, 258.934 528.815 C 260.094 532.838, 262.807 539.638, 264.962 543.925 C 267.118 548.212, 271.568 555.101, 274.853 559.234 C 278.137 563.366, 284.101 569.312, 288.107 572.446 C 292.112 575.581, 299.465 580.109, 304.445 582.510 C 309.425 584.911, 316.200 587.610, 319.500 588.508 C 322.800 589.405, 330.930 590.391, 337.566 590.698 C 346.769 591.123, 351.632 590.851, 358.066 589.550 C 362.705 588.611, 369.829 586.459, 373.898 584.767 C 377.966 583.075, 384.491 579.546, 388.398 576.925 C 392.304 574.305, 398.340 569.312, 401.810 565.830 C 405.281 562.349, 410.040 556.575, 412.387 553 C 414.734 549.425, 418.277 542.675, 420.260 538 C 422.243 533.325, 424.570 525.738, 425.433 521.140 C 426.295 516.541, 426.994 509.341, 426.987 505.140 C 426.980 500.938, 426.125 493.389, 425.088 488.364 C 424.009 483.133, 421.458 475.504, 419.122 470.520 C 416.878 465.731, 413.060 459.043, 410.638 455.656 C 408.216 452.270, 403.594 447.001, 400.367 443.947 C 397.140 440.893, 392.475 437.016, 390 435.330 C 387.525 433.645, 382.708 430.860, 379.297 429.142 C 375.885 427.424, 369.135 424.845, 364.297 423.410 C 357.631 421.434, 352.714 420.718, 344 420.454 C 337.675 420.263, 330.099 420.534, 327.164 421.057 M 330.500 766.119 C 326.650 766.596, 319.900 768.103, 315.500 769.468 C 311.100 770.833, 303.729 774.091, 299.120 776.708 C 294.511 779.325, 287.627 784.348, 283.822 787.871 C 280.017 791.394, 274.910 797.070, 272.473 800.485 C 270.037 803.900, 266.509 809.800, 264.635 813.597 C 262.761 817.394, 260.173 823.875, 258.884 828 C 256.830 834.574, 256.544 837.475, 256.566 851.500 C 256.589 866.279, 256.804 868.149, 259.383 876 C 260.918 880.675, 263.746 887.393, 265.667 890.930 C 267.588 894.466, 271.120 899.908, 273.517 903.022 C 275.913 906.136, 280.335 910.933, 283.342 913.682 C 286.350 916.431, 291.349 920.364, 294.450 922.423 C 297.551 924.481, 303.012 927.491, 306.585 929.111 C 310.158 930.731, 317.001 933.006, 321.791 934.166 C 327.683 935.594, 333.896 936.293, 341 936.328 C 347.580 936.361, 354.380 935.727, 359.214 934.630 C 363.457 933.667, 369.701 931.793, 373.090 930.465 C 376.479 929.136, 382.599 925.964, 386.689 923.415 C 390.779 920.865, 397.155 915.792, 400.857 912.140 C 404.559 908.488, 409.532 902.637, 411.908 899.137 C 414.284 895.638, 417.523 889.917, 419.106 886.426 C 420.690 882.934, 422.992 876.572, 424.222 872.289 C 426.083 865.808, 426.447 862.149, 426.390 850.500 C 426.329 838.262, 425.978 835.367, 423.601 827.500 C 422.106 822.550, 419.085 815.159, 416.888 811.076 C 414.692 806.992, 410.566 800.725, 407.721 797.149 C 404.875 793.572, 399.024 787.861, 394.719 784.457 C 390.415 781.053, 383.639 776.681, 379.663 774.741 C 375.687 772.801, 369.361 770.265, 365.605 769.105 C 361.850 767.945, 354.890 766.551, 350.138 766.006 C 345.387 765.462, 340.600 765.070, 339.500 765.135 C 338.400 765.200, 334.350 765.643, 330.500 766.119 M 330.500 1112.119 C 326.650 1112.596, 319.900 1114.103, 315.500 1115.468 C 311.100 1116.833, 303.729 1120.091, 299.120 1122.708 C 294.511 1125.325, 287.627 1130.348, 283.822 1133.871 C 280.017 1137.394, 274.910 1143.070, 272.473 1146.485 C 270.037 1149.900, 266.509 1155.800, 264.635 1159.597 C 262.761 1163.394, 260.173 1169.875, 258.884 1174 C 256.830 1180.574, 256.544 1183.475, 256.566 1197.500 C 256.589 1212.279, 256.804 1214.149, 259.383 1222 C 260.918 1226.675, 263.746 1233.393, 265.667 1236.930 C 267.588 1240.466, 271.120 1245.908, 273.517 1249.022 C 275.913 1252.136, 280.335 1256.933, 283.342 1259.682 C 286.350 1262.431, 291.349 1266.364, 294.450 1268.423 C 297.551 1270.481, 303.012 1273.491, 306.585 1275.111 C 310.158 1276.731, 317.001 1279.006, 321.791 1280.166 C 327.683 1281.594, 333.896 1282.293, 341 1282.328 C 347.580 1282.361, 354.380 1281.727, 359.214 1280.630 C 363.457 1279.667, 369.701 1277.793, 373.090 1276.465 C 376.479 1275.136, 382.599 1271.964, 386.689 1269.415 C 390.779 1266.865, 397.155 1261.792, 400.857 1258.140 C 404.559 1254.488, 409.532 1248.637, 411.908 1245.137 C 414.284 1241.638, 417.523 1235.917, 419.106 1232.426 C 420.690 1228.934, 422.992 1222.572, 424.222 1218.289 C 426.083 1211.808, 426.447 1208.149, 426.390 1196.500 C 426.329 1184.262, 425.978 1181.367, 423.601 1173.500 C 422.106 1168.550, 419.085 1161.159, 416.888 1157.076 C 414.692 1152.992, 410.566 1146.725, 407.721 1143.149 C 404.875 1139.572, 399.024 1133.861, 394.719 1130.457 C 390.415 1127.053, 383.639 1122.681, 379.663 1120.741 C 375.687 1118.801, 369.361 1116.265, 365.605 1115.105 C 361.850 1113.945, 354.890 1112.551, 350.138 1112.006 C 345.387 1111.462, 340.600 1111.070, 339.500 1111.135 C 338.400 1111.200, 334.350 1111.643, 330.500 1112.119 M 1348.980 1112.554 C 1345.395 1113.332, 1339.569 1115.101, 1336.034 1116.487 C 1332.500 1117.872, 1326.433 1120.870, 1322.554 1123.149 C 1318.171 1125.724, 1311.902 1130.930, 1306 1136.897 C 1299.631 1143.335, 1295.117 1148.972, 1292.306 1154 C 1289.999 1158.125, 1286.978 1164.903, 1285.594 1169.063 C 1284.209 1173.222, 1282.553 1179.972, 1281.914 1184.063 C 1281.264 1188.223, 1280.994 1195.686, 1281.301 1201 C 1281.635 1206.787, 1282.859 1213.938, 1284.434 1219.297 C 1285.855 1224.135, 1288.424 1230.885, 1290.142 1234.297 C 1291.860 1237.708, 1294.645 1242.525, 1296.330 1245 C 1298.016 1247.475, 1301.893 1252.140, 1304.947 1255.367 C 1308.001 1258.594, 1313.270 1263.216, 1316.656 1265.638 C 1320.043 1268.060, 1326.734 1271.880, 1331.526 1274.125 C 1336.757 1276.577, 1343.889 1278.929, 1349.370 1280.010 C 1357.870 1281.688, 1370.509 1281.858, 1532.500 1282.469 C 1662.181 1282.959, 1708.920 1282.830, 1716 1281.963 C 1721.225 1281.323, 1728.875 1279.729, 1733 1278.419 C 1737.125 1277.110, 1744.271 1273.900, 1748.880 1271.286 C 1753.489 1268.673, 1760.373 1263.652, 1764.178 1260.129 C 1767.983 1256.606, 1773.090 1250.930, 1775.527 1247.515 C 1777.963 1244.100, 1781.491 1238.200, 1783.365 1234.403 C 1785.239 1230.606, 1787.827 1224.125, 1789.116 1220 C 1791.170 1213.426, 1791.456 1210.525, 1791.434 1196.500 C 1791.411 1181.721, 1791.196 1179.851, 1788.617 1172 C 1787.082 1167.325, 1784.254 1160.607, 1782.333 1157.070 C 1780.412 1153.534, 1776.880 1148.092, 1774.483 1144.978 C 1772.087 1141.864, 1767.665 1137.067, 1764.658 1134.318 C 1761.650 1131.569, 1756.651 1127.636, 1753.550 1125.577 C 1750.449 1123.519, 1744.996 1120.512, 1741.432 1118.896 C 1737.868 1117.280, 1731.250 1114.966, 1726.726 1113.754 C 1718.500 1111.549, 1718.500 1111.549, 1537 1111.344 C 1383.730 1111.171, 1354.486 1111.359, 1348.980 1112.554 M 1356.500 1457.119 C 1352.650 1457.596, 1345.900 1459.103, 1341.500 1460.468 C 1337.100 1461.833, 1329.729 1465.091, 1325.120 1467.708 C 1320.511 1470.325, 1313.627 1475.348, 1309.822 1478.871 C 1306.017 1482.394, 1300.910 1488.070, 1298.473 1491.485 C 1296.037 1494.900, 1292.509 1500.800, 1290.635 1504.597 C 1288.761 1508.394, 1286.173 1514.875, 1284.884 1519 C 1282.830 1525.574, 1282.544 1528.475, 1282.566 1542.500 C 1282.589 1557.279, 1282.804 1559.149, 1285.383 1567 C 1286.918 1571.675, 1289.746 1578.393, 1291.667 1581.930 C 1293.588 1585.466, 1297.120 1590.908, 1299.517 1594.022 C 1301.913 1597.136, 1306.335 1601.933, 1309.342 1604.682 C 1312.350 1607.431, 1317.349 1611.364, 1320.450 1613.423 C 1323.551 1615.481, 1329.012 1618.491, 1332.585 1620.111 C 1336.158 1621.731, 1343.001 1624.006, 1347.791 1625.166 C 1353.683 1626.594, 1359.896 1627.293, 1367 1627.328 C 1373.580 1627.361, 1380.380 1626.727, 1385.214 1625.630 C 1389.457 1624.667, 1395.701 1622.793, 1399.090 1621.465 C 1402.479 1620.136, 1408.599 1616.964, 1412.689 1614.415 C 1416.779 1611.865, 1423.155 1606.792, 1426.857 1603.140 C 1430.559 1599.488, 1435.532 1593.637, 1437.908 1590.137 C 1440.284 1586.638, 1443.523 1580.917, 1445.106 1577.426 C 1446.690 1573.934, 1448.992 1567.572, 1450.222 1563.289 C 1452.083 1556.808, 1452.447 1553.149, 1452.390 1541.500 C 1452.329 1529.262, 1451.978 1526.367, 1449.601 1518.500 C 1448.106 1513.550, 1445.085 1506.159, 1442.888 1502.076 C 1440.692 1497.992, 1436.566 1491.725, 1433.721 1488.149 C 1430.875 1484.572, 1425.024 1478.861, 1420.719 1475.457 C 1416.415 1472.053, 1409.639 1467.681, 1405.663 1465.741 C 1401.687 1463.801, 1395.361 1461.265, 1391.605 1460.105 C 1387.850 1458.945, 1380.890 1457.551, 1376.138 1457.006 C 1371.387 1456.462, 1366.600 1456.070, 1365.500 1456.135 C 1364.400 1456.200, 1360.350 1456.643, 1356.500 1457.119 M 324 1458.554 C 320.425 1459.321, 315.475 1460.688, 313 1461.592 C 310.525 1462.495, 305.159 1465.005, 301.076 1467.170 C 296.992 1469.334, 290.736 1473.425, 287.172 1476.261 C 283.609 1479.096, 278.036 1484.761, 274.787 1488.848 C 271.539 1492.936, 267.118 1499.788, 264.962 1504.075 C 262.807 1508.362, 260.094 1515.162, 258.934 1519.185 C 257.564 1523.939, 256.636 1530.725, 256.285 1538.566 C 255.884 1547.509, 256.161 1552.690, 257.356 1558.584 C 258.242 1562.958, 260.101 1569.429, 261.486 1572.964 C 262.872 1576.500, 265.870 1582.567, 268.149 1586.446 C 270.724 1590.829, 275.930 1597.098, 281.897 1603 C 288.335 1609.369, 293.972 1613.883, 299 1616.694 C 303.125 1619.001, 309.903 1622.022, 314.063 1623.406 C 318.222 1624.791, 324.747 1626.401, 328.563 1626.985 C 333.382 1627.722, 443.749 1627.963, 690 1627.773 C 1044.500 1627.500, 1044.500 1627.500, 1053.297 1624.741 C 1058.135 1623.223, 1064.885 1620.576, 1068.297 1618.858 C 1071.708 1617.140, 1076.525 1614.355, 1079 1612.670 C 1081.475 1610.984, 1086.140 1607.107, 1089.367 1604.053 C 1092.594 1600.999, 1097.216 1595.730, 1099.638 1592.344 C 1102.060 1588.957, 1105.878 1582.269, 1108.122 1577.480 C 1110.458 1572.496, 1113.009 1564.867, 1114.088 1559.636 C 1115.125 1554.611, 1115.980 1547.062, 1115.987 1542.860 C 1115.994 1538.659, 1115.295 1531.459, 1114.433 1526.860 C 1113.570 1522.262, 1111.243 1514.675, 1109.260 1510 C 1107.277 1505.325, 1103.734 1498.575, 1101.387 1495 C 1099.040 1491.425, 1094.281 1485.651, 1090.810 1482.170 C 1087.340 1478.688, 1081.304 1473.695, 1077.398 1471.075 C 1073.491 1468.454, 1066.966 1464.928, 1062.898 1463.239 C 1058.829 1461.550, 1052.031 1459.455, 1047.792 1458.584 C 1040.839 1457.155, 1005.326 1457.008, 685.292 1457.079 C 385.772 1457.147, 329.487 1457.376, 324 1458.554" stroke="none" fill="#24c48c" fill-rule="evenodd"/></svg>